<svg width="154" height="52" viewBox="0 0 154 52" fill="none" xmlns="http://www.w3.org/2000/svg">
<rect width="154" height="52" rx="6" fill="#337EC3"/>
<path d="M57.2295 20.958L59.123 29.127L61.3926 20.958H62.8691L65.1387 29.127L67.0322 20.958H68.5225L65.8838 31H64.4551L62.1377 22.6738L59.8066 31H58.3779L55.7529 20.958H57.2295ZM72.4258 23.5146C72.9453 23.5146 73.4489 23.6377 73.9365 23.8838C74.4242 24.1253 74.7956 24.4398 75.0508 24.8271C75.2969 25.1963 75.4609 25.627 75.543 26.1191C75.6159 26.4564 75.6523 26.9941 75.6523 27.7324H70.2861C70.3089 28.4753 70.4844 29.0723 70.8125 29.5234C71.1406 29.9701 71.6488 30.1934 72.3369 30.1934C72.9795 30.1934 73.4922 29.9814 73.875 29.5576C74.0938 29.3115 74.2487 29.0267 74.3398 28.7031H75.5498C75.5179 28.972 75.4108 29.2728 75.2285 29.6055C75.0508 29.9336 74.8503 30.2025 74.627 30.4121C74.2533 30.7767 73.7907 31.0228 73.2393 31.1504C72.943 31.2233 72.6081 31.2598 72.2344 31.2598C71.3229 31.2598 70.5505 30.9294 69.917 30.2686C69.2835 29.6032 68.9668 28.6735 68.9668 27.4795C68.9668 26.3037 69.2858 25.349 69.9238 24.6152C70.5618 23.8815 71.3958 23.5146 72.4258 23.5146ZM74.3877 26.7549C74.3376 26.2217 74.2214 25.7956 74.0391 25.4766C73.7018 24.8841 73.139 24.5879 72.3506 24.5879C71.7855 24.5879 71.3115 24.793 70.9287 25.2031C70.5459 25.6087 70.3431 26.126 70.3203 26.7549H74.3877ZM77.0742 20.9238H78.2705V24.5674C78.5394 24.2165 78.8607 23.9499 79.2344 23.7676C79.6081 23.5807 80.0137 23.4873 80.4512 23.4873C81.3626 23.4873 82.1009 23.8018 82.666 24.4307C83.2357 25.055 83.5205 25.9779 83.5205 27.1992C83.5205 28.3568 83.2402 29.3184 82.6797 30.084C82.1191 30.8496 81.3421 31.2324 80.3486 31.2324C79.7926 31.2324 79.3232 31.098 78.9404 30.8291C78.7126 30.6696 78.4688 30.4144 78.209 30.0635V31H77.0742V20.9238ZM80.2734 30.1455C80.9388 30.1455 81.4355 29.8812 81.7637 29.3525C82.0964 28.8239 82.2627 28.1266 82.2627 27.2607C82.2627 26.4906 82.0964 25.8525 81.7637 25.3467C81.4355 24.8408 80.9502 24.5879 80.3076 24.5879C79.7471 24.5879 79.2549 24.7952 78.8311 25.21C78.4118 25.6247 78.2021 26.3083 78.2021 27.2607C78.2021 27.9489 78.2887 28.5072 78.4619 28.9355C78.7855 29.7422 79.3893 30.1455 80.2734 30.1455ZM86.6035 20.958V27.165C86.6035 27.8942 86.7402 28.5003 87.0137 28.9834C87.4193 29.7126 88.1029 30.0771 89.0645 30.0771C90.2174 30.0771 91.0013 29.6829 91.416 28.8945C91.6393 28.4661 91.751 27.8896 91.751 27.165V20.958H93.1318V26.5977C93.1318 27.8327 92.9655 28.7829 92.6328 29.4482C92.0221 30.6605 90.8691 31.2666 89.1738 31.2666C87.4785 31.2666 86.3278 30.6605 85.7217 29.4482C85.389 28.7829 85.2227 27.8327 85.2227 26.5977V20.958H86.6035ZM95.5518 20.958H96.9258V31H95.5518V20.958Z" fill="white"/>
</svg>
